<svg id="visual" viewBox="0 0 2000 200" width="2000" height="200" xmlns="http://www.w3.org/2000/svg" xmlns:xlink="http://www.w3.org/1999/xlink" version="1.1"><rect x="0" y="0" width="2000" height="200" fill="none"></rect><path d="M0 40L27.8 59.3C55.7 78.7 111.3 117.3 166.8 131.5C222.3 145.7 277.7 135.3 333.2 121C388.7 106.7 444.3 88.3 500 86.3C555.7 84.3 611.3 98.7 666.8 112.8C722.3 127 777.7 141 833.2 132C888.7 123 944.3 91 1000 70.2C1055.7 49.3 1111.3 39.7 1166.8 44.3C1222.3 49 1277.7 68 1333.2 77.8C1388.7 87.7 1444.3 88.3 1500 86.8C1555.7 85.3 1611.3 81.7 1666.8 79.8C1722.3 78 1777.7 78 1833.2 71.7C1888.7 65.3 1944.3 52.7 1972.2 46.3L2000 40L2000 201L1972.2 201C1944.3 201 1888.7 201 1833.2 201C1777.7 201 1722.3 201 1666.8 201C1611.3 201 1555.7 201 1500 201C1444.3 201 1388.7 201 1333.2 201C1277.7 201 1222.3 201 1166.8 201C1111.3 201 1055.7 201 1000 201C944.3 201 888.7 201 833.2 201C777.7 201 722.3 201 666.8 201C611.3 201 555.7 201 500 201C444.3 201 388.7 201 333.2 201C277.7 201 222.3 201 166.8 201C111.3 201 55.7 201 27.8 201L0 201Z" fill="#7c4455"></path><path d="M0 97L27.8 109.8C55.7 122.7 111.3 148.3 166.8 159.3C222.3 170.3 277.7 166.7 333.2 157C388.7 147.3 444.3 131.7 500 125.3C555.7 119 611.3 122 666.8 112.3C722.3 102.7 777.7 80.3 833.2 70.5C888.7 60.7 944.3 63.3 1000 76.7C1055.7 90 1111.3 114 1166.8 117.5C1222.3 121 1277.7 104 1333.2 93.3C1388.7 82.7 1444.3 78.3 1500 85C1555.7 91.7 1611.3 109.3 1666.8 110.7C1722.3 112 1777.7 97 1833.2 92C1888.7 87 1944.3 92 1972.2 94.5L2000 97L2000 201L1972.2 201C1944.3 201 1888.7 201 1833.2 201C1777.7 201 1722.3 201 1666.8 201C1611.3 201 1555.7 201 1500 201C1444.3 201 1388.7 201 1333.2 201C1277.7 201 1222.3 201 1166.8 201C1111.3 201 1055.7 201 1000 201C944.3 201 888.7 201 833.2 201C777.7 201 722.3 201 666.8 201C611.3 201 555.7 201 500 201C444.3 201 388.7 201 333.2 201C277.7 201 222.3 201 166.8 201C111.3 201 55.7 201 27.8 201L0 201Z" fill="#a04353"></path><path d="M0 93L27.8 91.8C55.7 90.7 111.3 88.3 166.8 86.8C222.3 85.3 277.7 84.7 333.2 99.8C388.7 115 444.3 146 500 158.8C555.7 171.7 611.3 166.3 666.8 154.5C722.3 142.7 777.7 124.3 833.2 118.2C888.7 112 944.3 118 1000 124.8C1055.7 131.7 1111.3 139.3 1166.8 148.7C1222.3 158 1277.7 169 1333.2 163.5C1388.7 158 1444.3 136 1500 136.8C1555.7 137.7 1611.3 161.3 1666.8 173C1722.3 184.7 1777.7 184.3 1833.2 182.8C1888.7 181.3 1944.3 178.7 1972.2 177.3L2000 176L2000 201L1972.2 201C1944.3 201 1888.7 201 1833.2 201C1777.7 201 1722.3 201 1666.8 201C1611.3 201 1555.7 201 1500 201C1444.3 201 1388.7 201 1333.2 201C1277.7 201 1222.3 201 1166.8 201C1111.3 201 1055.7 201 1000 201C944.3 201 888.7 201 833.2 201C777.7 201 722.3 201 666.8 201C611.3 201 555.7 201 500 201C444.3 201 388.7 201 333.2 201C277.7 201 222.3 201 166.8 201C111.3 201 55.7 201 27.8 201L0 201Z" fill="#c04448"></path><path d="M0 170L27.8 172.2C55.7 174.3 111.3 178.7 166.8 171.2C222.3 163.7 277.7 144.3 333.2 140.3C388.7 136.3 444.3 147.7 500 146.5C555.7 145.3 611.3 131.7 666.8 125.7C722.3 119.7 777.7 121.3 833.2 129.8C888.7 138.3 944.3 153.7 1000 161.2C1055.7 168.7 1111.3 168.3 1166.8 168.8C1222.3 169.3 1277.7 170.7 1333.2 163.2C1388.7 155.7 1444.3 139.3 1500 129.8C1555.7 120.3 1611.3 117.7 1666.8 120.2C1722.3 122.7 1777.7 130.3 1833.2 135C1888.7 139.7 1944.3 141.3 1972.2 142.2L2000 143L2000 201L1972.2 201C1944.3 201 1888.7 201 1833.2 201C1777.7 201 1722.3 201 1666.8 201C1611.3 201 1555.7 201 1500 201C1444.3 201 1388.7 201 1333.2 201C1277.7 201 1222.3 201 1166.8 201C1111.3 201 1055.7 201 1000 201C944.3 201 888.7 201 833.2 201C777.7 201 722.3 201 666.8 201C611.3 201 555.7 201 500 201C444.3 201 388.7 201 333.2 201C277.7 201 222.3 201 166.8 201C111.3 201 55.7 201 27.8 201L0 201Z" fill="#da4b32"></path><path d="M0 153L27.8 152.3C55.7 151.7 111.3 150.3 166.8 153.7C222.3 157 277.7 165 333.2 168.8C388.7 172.7 444.3 172.3 500 167C555.7 161.7 611.3 151.3 666.8 154.7C722.3 158 777.7 175 833.2 181.3C888.7 187.7 944.3 183.3 1000 177.2C1055.7 171 1111.3 163 1166.8 162.3C1222.3 161.7 1277.7 168.3 1333.2 172.8C1388.7 177.3 1444.3 179.7 1500 180C1555.7 180.3 1611.3 178.7 1666.8 177C1722.3 175.3 1777.7 173.7 1833.2 168.3C1888.7 163 1944.3 154 1972.2 149.5L2000 145L2000 201L1972.2 201C1944.3 201 1888.7 201 1833.2 201C1777.7 201 1722.3 201 1666.8 201C1611.3 201 1555.7 201 1500 201C1444.3 201 1388.7 201 1333.2 201C1277.7 201 1222.3 201 1166.8 201C1111.3 201 1055.7 201 1000 201C944.3 201 888.7 201 833.2 201C777.7 201 722.3 201 666.8 201C611.3 201 555.7 201 500 201C444.3 201 388.7 201 333.2 201C277.7 201 222.3 201 166.8 201C111.3 201 55.7 201 27.8 201L0 201Z" fill="#eb5c00"></path></svg>
