<svg id="visual" viewBox="0 0 2000 200" width="2000" height="200" xmlns="http://www.w3.org/2000/svg" xmlns:xlink="http://www.w3.org/1999/xlink" version="1.1"><rect x="0" y="0" width="2000" height="200" fill="none"></rect><path d="M0 121L27.8 126.5C55.7 132 111.3 143 166.8 143.7C222.3 144.3 277.7 134.7 333.2 126.5C388.7 118.3 444.3 111.7 500 94.8C555.7 78 611.3 51 666.8 47C722.3 43 777.7 62 833.2 72.8C888.7 83.7 944.3 86.3 1000 94.7C1055.7 103 1111.3 117 1166.8 124.5C1222.3 132 1277.7 133 1333.2 115C1388.7 97 1444.3 60 1500 56.5C1555.7 53 1611.3 83 1666.8 99.5C1722.3 116 1777.7 119 1833.2 128.8C1888.7 138.7 1944.3 155.3 1972.2 163.7L2000 172L2000 201L1972.2 201C1944.3 201 1888.7 201 1833.2 201C1777.7 201 1722.3 201 1666.8 201C1611.3 201 1555.7 201 1500 201C1444.3 201 1388.7 201 1333.2 201C1277.7 201 1222.3 201 1166.8 201C1111.3 201 1055.7 201 1000 201C944.3 201 888.7 201 833.2 201C777.7 201 722.3 201 666.8 201C611.3 201 555.7 201 500 201C444.3 201 388.7 201 333.2 201C277.7 201 222.3 201 166.8 201C111.3 201 55.7 201 27.8 201L0 201Z" fill="#7c4455"></path><path d="M0 93L27.8 101.2C55.7 109.3 111.3 125.7 166.8 127.5C222.3 129.3 277.7 116.7 333.2 122.5C388.7 128.3 444.3 152.7 500 164.3C555.7 176 611.3 175 666.8 155.8C722.3 136.7 777.7 99.3 833.2 96.3C888.7 93.3 944.3 124.7 1000 133.3C1055.7 142 1111.3 128 1166.8 122.8C1222.3 117.7 1277.7 121.3 1333.2 129.2C1388.7 137 1444.3 149 1500 138.7C1555.7 128.3 1611.3 95.7 1666.8 84.8C1722.3 74 1777.7 85 1833.2 88.7C1888.7 92.3 1944.3 88.7 1972.2 86.8L2000 85L2000 201L1972.2 201C1944.3 201 1888.7 201 1833.2 201C1777.7 201 1722.3 201 1666.8 201C1611.3 201 1555.7 201 1500 201C1444.3 201 1388.7 201 1333.2 201C1277.7 201 1222.3 201 1166.8 201C1111.3 201 1055.7 201 1000 201C944.3 201 888.7 201 833.2 201C777.7 201 722.3 201 666.8 201C611.3 201 555.7 201 500 201C444.3 201 388.7 201 333.2 201C277.7 201 222.3 201 166.8 201C111.3 201 55.7 201 27.8 201L0 201Z" fill="#a04353"></path><path d="M0 97L27.8 95.3C55.7 93.7 111.3 90.3 166.8 91.8C222.3 93.3 277.7 99.7 333.2 102.3C388.7 105 444.3 104 500 116.7C555.7 129.3 611.3 155.7 666.8 157C722.3 158.3 777.7 134.7 833.2 128.7C888.7 122.7 944.3 134.3 1000 142.7C1055.7 151 1111.3 156 1166.8 156C1222.3 156 1277.7 151 1333.2 152.7C1388.7 154.3 1444.3 162.7 1500 156.8C1555.7 151 1611.3 131 1666.8 122.2C1722.3 113.3 1777.7 115.7 1833.2 115.8C1888.7 116 1944.3 114 1972.2 113L2000 112L2000 201L1972.2 201C1944.3 201 1888.7 201 1833.2 201C1777.7 201 1722.3 201 1666.8 201C1611.3 201 1555.7 201 1500 201C1444.3 201 1388.7 201 1333.2 201C1277.7 201 1222.3 201 1166.8 201C1111.3 201 1055.7 201 1000 201C944.3 201 888.7 201 833.2 201C777.7 201 722.3 201 666.8 201C611.3 201 555.7 201 500 201C444.3 201 388.7 201 333.2 201C277.7 201 222.3 201 166.8 201C111.3 201 55.7 201 27.8 201L0 201Z" fill="#c04448"></path><path d="M0 145L27.8 139.7C55.7 134.3 111.3 123.7 166.8 124.2C222.3 124.7 277.7 136.3 333.2 143C388.7 149.7 444.3 151.3 500 146.2C555.7 141 611.3 129 666.8 131.7C722.3 134.3 777.7 151.7 833.2 151.3C888.7 151 944.3 133 1000 125.8C1055.7 118.7 1111.3 122.3 1166.8 124.2C1222.3 126 1277.7 126 1333.2 135C1388.7 144 1444.3 162 1500 164C1555.7 166 1611.3 152 1666.8 140.2C1722.3 128.3 1777.7 118.7 1833.2 125.5C1888.7 132.3 1944.3 155.7 1972.2 167.3L2000 179L2000 201L1972.2 201C1944.3 201 1888.7 201 1833.2 201C1777.7 201 1722.3 201 1666.8 201C1611.3 201 1555.7 201 1500 201C1444.3 201 1388.7 201 1333.2 201C1277.7 201 1222.3 201 1166.8 201C1111.3 201 1055.7 201 1000 201C944.3 201 888.7 201 833.2 201C777.7 201 722.3 201 666.8 201C611.3 201 555.7 201 500 201C444.3 201 388.7 201 333.2 201C277.7 201 222.3 201 166.8 201C111.3 201 55.7 201 27.8 201L0 201Z" fill="#da4b32"></path><path d="M0 184L27.8 178.2C55.7 172.3 111.3 160.7 166.8 155.5C222.3 150.3 277.7 151.7 333.2 155C388.7 158.3 444.3 163.7 500 168C555.7 172.3 611.3 175.7 666.8 173.3C722.3 171 777.7 163 833.2 164C888.7 165 944.3 175 1000 178.8C1055.7 182.7 1111.3 180.3 1166.8 175.8C1222.3 171.3 1277.7 164.7 1333.2 159.7C1388.7 154.7 1444.3 151.3 1500 155.5C1555.7 159.7 1611.3 171.3 1666.8 171.8C1722.3 172.3 1777.7 161.7 1833.2 156.5C1888.7 151.3 1944.3 151.7 1972.2 151.8L2000 152L2000 201L1972.2 201C1944.3 201 1888.7 201 1833.2 201C1777.7 201 1722.3 201 1666.8 201C1611.3 201 1555.7 201 1500 201C1444.3 201 1388.7 201 1333.2 201C1277.7 201 1222.3 201 1166.8 201C1111.3 201 1055.7 201 1000 201C944.3 201 888.7 201 833.2 201C777.7 201 722.3 201 666.8 201C611.3 201 555.7 201 500 201C444.3 201 388.7 201 333.2 201C277.7 201 222.3 201 166.8 201C111.3 201 55.7 201 27.8 201L0 201Z" fill="#eb5c00"></path></svg>
