<svg id="visual" viewBox="0 0 2000 200" width="2000" height="200" xmlns="http://www.w3.org/2000/svg" xmlns:xlink="http://www.w3.org/1999/xlink" version="1.1"><rect x="0" y="0" width="2000" height="200" fill="none"></rect><path d="M0 139L27.8 139.5C55.7 140 111.3 141 166.8 128.3C222.3 115.7 277.7 89.3 333.2 70C388.7 50.7 444.3 38.3 500 52.7C555.7 67 611.3 108 666.8 128.7C722.3 149.3 777.7 149.7 833.2 134.5C888.7 119.3 944.3 88.7 1000 80.5C1055.7 72.3 1111.3 86.7 1166.8 94C1222.3 101.3 1277.7 101.7 1333.2 111.2C1388.7 120.7 1444.3 139.3 1500 143.3C1555.7 147.3 1611.3 136.7 1666.8 133.3C1722.3 130 1777.7 134 1833.2 116.3C1888.7 98.7 1944.3 59.3 1972.2 39.7L2000 20L2000 201L1972.2 201C1944.3 201 1888.7 201 1833.2 201C1777.7 201 1722.3 201 1666.8 201C1611.3 201 1555.7 201 1500 201C1444.3 201 1388.7 201 1333.2 201C1277.7 201 1222.3 201 1166.8 201C1111.3 201 1055.7 201 1000 201C944.3 201 888.7 201 833.2 201C777.7 201 722.3 201 666.8 201C611.3 201 555.7 201 500 201C444.3 201 388.7 201 333.2 201C277.7 201 222.3 201 166.8 201C111.3 201 55.7 201 27.8 201L0 201Z" fill="#7c4455"></path><path d="M0 146L27.8 150.2C55.7 154.3 111.3 162.7 166.8 151.8C222.3 141 277.7 111 333.2 93C388.7 75 444.3 69 500 69.3C555.7 69.7 611.3 76.3 666.8 80.3C722.3 84.3 777.7 85.7 833.2 97C888.7 108.3 944.3 129.7 1000 125.5C1055.7 121.3 1111.3 91.7 1166.8 74.8C1222.3 58 1277.7 54 1333.2 71C1388.7 88 1444.3 126 1500 147.2C1555.7 168.3 1611.3 172.7 1666.8 175.2C1722.3 177.7 1777.7 178.3 1833.2 171.3C1888.7 164.3 1944.3 149.7 1972.2 142.3L2000 135L2000 201L1972.2 201C1944.3 201 1888.7 201 1833.2 201C1777.7 201 1722.3 201 1666.8 201C1611.3 201 1555.7 201 1500 201C1444.3 201 1388.7 201 1333.2 201C1277.7 201 1222.3 201 1166.8 201C1111.3 201 1055.7 201 1000 201C944.3 201 888.7 201 833.2 201C777.7 201 722.3 201 666.8 201C611.3 201 555.7 201 500 201C444.3 201 388.7 201 333.2 201C277.7 201 222.3 201 166.8 201C111.3 201 55.7 201 27.8 201L0 201Z" fill="#a04353"></path><path d="M0 91L27.8 95.2C55.7 99.3 111.3 107.7 166.8 123.2C222.3 138.7 277.7 161.3 333.2 167.7C388.7 174 444.3 164 500 163.8C555.7 163.7 611.3 173.3 666.8 171.3C722.3 169.3 777.7 155.7 833.2 138.3C888.7 121 944.3 100 1000 93.3C1055.7 86.7 1111.3 94.3 1166.8 99.8C1222.3 105.3 1277.7 108.7 1333.2 113C1388.7 117.3 1444.3 122.7 1500 126.5C1555.7 130.3 1611.3 132.7 1666.8 129.8C1722.3 127 1777.7 119 1833.2 111.7C1888.7 104.3 1944.3 97.7 1972.2 94.3L2000 91L2000 201L1972.2 201C1944.3 201 1888.7 201 1833.2 201C1777.7 201 1722.3 201 1666.8 201C1611.3 201 1555.7 201 1500 201C1444.3 201 1388.7 201 1333.2 201C1277.7 201 1222.3 201 1166.8 201C1111.3 201 1055.7 201 1000 201C944.3 201 888.7 201 833.2 201C777.7 201 722.3 201 666.8 201C611.3 201 555.7 201 500 201C444.3 201 388.7 201 333.2 201C277.7 201 222.3 201 166.8 201C111.3 201 55.7 201 27.8 201L0 201Z" fill="#c04448"></path><path d="M0 119L27.8 126.7C55.7 134.3 111.3 149.7 166.8 157.8C222.3 166 277.7 167 333.2 167.5C388.7 168 444.3 168 500 159.5C555.7 151 611.3 134 666.8 131.3C722.3 128.7 777.7 140.3 833.2 149.5C888.7 158.7 944.3 165.3 1000 160.8C1055.7 156.3 1111.3 140.7 1166.8 139.5C1222.3 138.3 1277.7 151.7 1333.2 160.5C1388.7 169.3 1444.3 173.7 1500 168.2C1555.7 162.7 1611.3 147.3 1666.8 149C1722.3 150.7 1777.7 169.3 1833.2 169.3C1888.7 169.3 1944.3 150.7 1972.2 141.3L2000 132L2000 201L1972.2 201C1944.3 201 1888.7 201 1833.2 201C1777.7 201 1722.3 201 1666.8 201C1611.3 201 1555.7 201 1500 201C1444.3 201 1388.7 201 1333.2 201C1277.7 201 1222.3 201 1166.8 201C1111.3 201 1055.7 201 1000 201C944.3 201 888.7 201 833.2 201C777.7 201 722.3 201 666.8 201C611.3 201 555.7 201 500 201C444.3 201 388.7 201 333.2 201C277.7 201 222.3 201 166.8 201C111.3 201 55.7 201 27.8 201L0 201Z" fill="#da4b32"></path><path d="M0 190L27.8 189.2C55.7 188.3 111.3 186.7 166.8 178.8C222.3 171 277.7 157 333.2 151.2C388.7 145.3 444.3 147.7 500 148.8C555.7 150 611.3 150 666.8 156.8C722.3 163.7 777.7 177.3 833.2 181.8C888.7 186.3 944.3 181.7 1000 176C1055.7 170.3 1111.3 163.7 1166.8 158.3C1222.3 153 1277.7 149 1333.2 153.7C1388.7 158.3 1444.3 171.7 1500 175.8C1555.7 180 1611.3 175 1666.8 176C1722.3 177 1777.7 184 1833.2 180.3C1888.7 176.7 1944.3 162.3 1972.2 155.2L2000 148L2000 201L1972.2 201C1944.3 201 1888.7 201 1833.2 201C1777.7 201 1722.3 201 1666.8 201C1611.3 201 1555.7 201 1500 201C1444.3 201 1388.7 201 1333.2 201C1277.7 201 1222.3 201 1166.8 201C1111.3 201 1055.7 201 1000 201C944.3 201 888.7 201 833.2 201C777.7 201 722.3 201 666.8 201C611.3 201 555.7 201 500 201C444.3 201 388.7 201 333.2 201C277.7 201 222.3 201 166.8 201C111.3 201 55.7 201 27.8 201L0 201Z" fill="#eb5c00"></path></svg>
