<svg id="visual" viewBox="0 0 2000 200" width="2000" height="200" xmlns="http://www.w3.org/2000/svg" xmlns:xlink="http://www.w3.org/1999/xlink" version="1.1"><rect x="0" y="0" width="2000" height="200" fill="none"></rect><path d="M0 68L27.8 67.2C55.7 66.3 111.3 64.7 166.8 58.2C222.3 51.7 277.7 40.3 333.2 57C388.7 73.7 444.3 118.3 500 131.3C555.7 144.3 611.3 125.7 666.8 106.7C722.3 87.7 777.7 68.3 833.2 63.5C888.7 58.7 944.3 68.3 1000 73.2C1055.7 78 1111.3 78 1166.8 72.2C1222.3 66.3 1277.7 54.7 1333.2 54.7C1388.7 54.7 1444.3 66.3 1500 76C1555.7 85.7 1611.3 93.3 1666.8 97.8C1722.3 102.3 1777.7 103.7 1833.2 104.2C1888.7 104.7 1944.3 104.3 1972.2 104.2L2000 104L2000 201L1972.2 201C1944.3 201 1888.7 201 1833.2 201C1777.7 201 1722.3 201 1666.8 201C1611.3 201 1555.7 201 1500 201C1444.3 201 1388.7 201 1333.2 201C1277.7 201 1222.3 201 1166.8 201C1111.3 201 1055.7 201 1000 201C944.3 201 888.7 201 833.2 201C777.7 201 722.3 201 666.8 201C611.3 201 555.7 201 500 201C444.3 201 388.7 201 333.2 201C277.7 201 222.3 201 166.8 201C111.3 201 55.7 201 27.8 201L0 201Z" fill="#7c4455"></path><path d="M0 62L27.8 60.3C55.7 58.7 111.3 55.3 166.8 67.5C222.3 79.7 277.7 107.3 333.2 115.8C388.7 124.3 444.3 113.7 500 118.5C555.7 123.3 611.3 143.7 666.8 142.7C722.3 141.7 777.7 119.3 833.2 110C888.7 100.7 944.3 104.3 1000 113.3C1055.7 122.3 1111.3 136.7 1166.8 141.5C1222.3 146.3 1277.7 141.7 1333.2 130.8C1388.7 120 1444.3 103 1500 103.8C1555.7 104.7 1611.3 123.3 1666.8 127.7C1722.3 132 1777.7 122 1833.2 113.3C1888.7 104.7 1944.3 97.3 1972.2 93.7L2000 90L2000 201L1972.2 201C1944.3 201 1888.7 201 1833.2 201C1777.7 201 1722.3 201 1666.8 201C1611.3 201 1555.7 201 1500 201C1444.3 201 1388.7 201 1333.2 201C1277.7 201 1222.3 201 1166.8 201C1111.3 201 1055.7 201 1000 201C944.3 201 888.7 201 833.2 201C777.7 201 722.3 201 666.8 201C611.3 201 555.7 201 500 201C444.3 201 388.7 201 333.2 201C277.7 201 222.3 201 166.8 201C111.3 201 55.7 201 27.8 201L0 201Z" fill="#a04353"></path><path d="M0 181L27.8 179C55.7 177 111.3 173 166.8 172.5C222.3 172 277.7 175 333.2 166C388.7 157 444.3 136 500 134.3C555.7 132.7 611.3 150.3 666.8 145C722.3 139.7 777.7 111.3 833.2 113.8C888.7 116.3 944.3 149.7 1000 162.7C1055.7 175.7 1111.3 168.3 1166.8 158.8C1222.3 149.3 1277.7 137.7 1333.2 126.2C1388.7 114.7 1444.3 103.3 1500 111.3C1555.7 119.3 1611.3 146.7 1666.8 155C1722.3 163.3 1777.7 152.7 1833.2 138.2C1888.7 123.7 1944.3 105.3 1972.2 96.2L2000 87L2000 201L1972.2 201C1944.3 201 1888.7 201 1833.2 201C1777.7 201 1722.3 201 1666.8 201C1611.3 201 1555.7 201 1500 201C1444.3 201 1388.7 201 1333.2 201C1277.7 201 1222.3 201 1166.8 201C1111.3 201 1055.7 201 1000 201C944.3 201 888.7 201 833.2 201C777.7 201 722.3 201 666.8 201C611.3 201 555.7 201 500 201C444.3 201 388.7 201 333.2 201C277.7 201 222.3 201 166.8 201C111.3 201 55.7 201 27.8 201L0 201Z" fill="#c04448"></path><path d="M0 146L27.8 151C55.7 156 111.3 166 166.8 167.8C222.3 169.7 277.7 163.3 333.2 164.8C388.7 166.3 444.3 175.7 500 171C555.7 166.3 611.3 147.7 666.8 144.8C722.3 142 777.7 155 833.2 164.5C888.7 174 944.3 180 1000 179.8C1055.7 179.7 1111.3 173.3 1166.8 173.7C1222.3 174 1277.7 181 1333.2 173C1388.7 165 1444.3 142 1500 137C1555.7 132 1611.3 145 1666.8 154.8C1722.3 164.7 1777.7 171.3 1833.2 163.7C1888.7 156 1944.3 134 1972.2 123L2000 112L2000 201L1972.2 201C1944.3 201 1888.7 201 1833.2 201C1777.7 201 1722.3 201 1666.8 201C1611.3 201 1555.7 201 1500 201C1444.3 201 1388.7 201 1333.2 201C1277.7 201 1222.3 201 1166.8 201C1111.3 201 1055.7 201 1000 201C944.3 201 888.7 201 833.2 201C777.7 201 722.3 201 666.8 201C611.3 201 555.7 201 500 201C444.3 201 388.7 201 333.2 201C277.7 201 222.3 201 166.8 201C111.3 201 55.7 201 27.8 201L0 201Z" fill="#da4b32"></path><path d="M0 185L27.8 178.5C55.7 172 111.3 159 166.8 153.7C222.3 148.3 277.7 150.7 333.2 150.2C388.7 149.7 444.3 146.3 500 148.8C555.7 151.3 611.3 159.7 666.8 161.2C722.3 162.7 777.7 157.3 833.2 154.3C888.7 151.3 944.3 150.7 1000 153.8C1055.7 157 1111.3 164 1166.8 164.8C1222.3 165.7 1277.7 160.3 1333.2 161.5C1388.7 162.7 1444.3 170.3 1500 170.5C1555.7 170.7 1611.3 163.3 1666.8 164.5C1722.3 165.7 1777.7 175.3 1833.2 179.3C1888.7 183.3 1944.3 181.7 1972.2 180.8L2000 180L2000 201L1972.2 201C1944.3 201 1888.7 201 1833.2 201C1777.7 201 1722.3 201 1666.8 201C1611.3 201 1555.7 201 1500 201C1444.3 201 1388.7 201 1333.2 201C1277.7 201 1222.3 201 1166.8 201C1111.3 201 1055.7 201 1000 201C944.3 201 888.7 201 833.2 201C777.7 201 722.3 201 666.8 201C611.3 201 555.7 201 500 201C444.3 201 388.7 201 333.2 201C277.7 201 222.3 201 166.8 201C111.3 201 55.7 201 27.8 201L0 201Z" fill="#eb5c00"></path></svg>
