<svg id="visual" viewBox="0 0 2000 200" width="2000" height="200" xmlns="http://www.w3.org/2000/svg" xmlns:xlink="http://www.w3.org/1999/xlink" version="1.1"><rect x="0" y="0" width="2000" height="200" fill="none"></rect><path d="M0 79L27.8 93C55.7 107 111.3 135 166.8 131.5C222.3 128 277.7 93 333.2 78.7C388.7 64.3 444.3 70.7 500 67.8C555.7 65 611.3 53 666.8 47.5C722.3 42 777.7 43 833.2 57.2C888.7 71.3 944.3 98.7 1000 94.7C1055.7 90.7 1111.3 55.3 1166.8 47.5C1222.3 39.7 1277.7 59.3 1333.2 68.5C1388.7 77.7 1444.3 76.3 1500 69.5C1555.7 62.7 1611.3 50.3 1666.8 56C1722.3 61.7 1777.7 85.3 1833.2 83.5C1888.7 81.7 1944.3 54.3 1972.2 40.7L2000 27L2000 201L1972.2 201C1944.3 201 1888.7 201 1833.2 201C1777.7 201 1722.3 201 1666.8 201C1611.3 201 1555.7 201 1500 201C1444.3 201 1388.7 201 1333.2 201C1277.7 201 1222.3 201 1166.8 201C1111.3 201 1055.7 201 1000 201C944.3 201 888.7 201 833.2 201C777.7 201 722.3 201 666.8 201C611.3 201 555.7 201 500 201C444.3 201 388.7 201 333.2 201C277.7 201 222.3 201 166.8 201C111.3 201 55.7 201 27.8 201L0 201Z" fill="#7c4455"></path><path d="M0 178L27.8 169.5C55.7 161 111.3 144 166.8 134.7C222.3 125.3 277.7 123.7 333.2 122.3C388.7 121 444.3 120 500 120C555.7 120 611.3 121 666.8 111.8C722.3 102.7 777.7 83.3 833.2 83.2C888.7 83 944.3 102 1000 102.7C1055.7 103.3 1111.3 85.7 1166.8 77.3C1222.3 69 1277.7 70 1333.2 81C1388.7 92 1444.3 113 1500 127.3C1555.7 141.7 1611.3 149.3 1666.8 137.8C1722.3 126.3 1777.7 95.7 1833.2 98.7C1888.7 101.7 1944.3 138.3 1972.2 156.7L2000 175L2000 201L1972.2 201C1944.3 201 1888.7 201 1833.2 201C1777.7 201 1722.3 201 1666.8 201C1611.3 201 1555.7 201 1500 201C1444.3 201 1388.7 201 1333.2 201C1277.7 201 1222.3 201 1166.8 201C1111.3 201 1055.7 201 1000 201C944.3 201 888.7 201 833.2 201C777.7 201 722.3 201 666.8 201C611.3 201 555.7 201 500 201C444.3 201 388.7 201 333.2 201C277.7 201 222.3 201 166.8 201C111.3 201 55.7 201 27.8 201L0 201Z" fill="#a04353"></path><path d="M0 161L27.8 147.8C55.7 134.7 111.3 108.3 166.8 111.3C222.3 114.3 277.7 146.7 333.2 152C388.7 157.3 444.3 135.7 500 134.8C555.7 134 611.3 154 666.8 148.7C722.3 143.3 777.7 112.7 833.2 104C888.7 95.3 944.3 108.7 1000 114.5C1055.7 120.3 1111.3 118.7 1166.8 128.2C1222.3 137.7 1277.7 158.3 1333.2 159.2C1388.7 160 1444.3 141 1500 134.7C1555.7 128.3 1611.3 134.7 1666.8 144.2C1722.3 153.7 1777.7 166.3 1833.2 161.3C1888.7 156.3 1944.3 133.7 1972.2 122.3L2000 111L2000 201L1972.2 201C1944.3 201 1888.7 201 1833.2 201C1777.7 201 1722.3 201 1666.8 201C1611.3 201 1555.7 201 1500 201C1444.3 201 1388.7 201 1333.2 201C1277.7 201 1222.3 201 1166.8 201C1111.3 201 1055.7 201 1000 201C944.3 201 888.7 201 833.2 201C777.7 201 722.3 201 666.8 201C611.3 201 555.7 201 500 201C444.3 201 388.7 201 333.2 201C277.7 201 222.3 201 166.8 201C111.3 201 55.7 201 27.8 201L0 201Z" fill="#c04448"></path><path d="M0 169L27.8 165.5C55.7 162 111.3 155 166.8 145.5C222.3 136 277.7 124 333.2 130.7C388.7 137.3 444.3 162.7 500 163.2C555.7 163.7 611.3 139.3 666.8 131C722.3 122.7 777.7 130.3 833.2 130.3C888.7 130.3 944.3 122.7 1000 125.2C1055.7 127.7 1111.3 140.3 1166.8 152.5C1222.3 164.7 1277.7 176.3 1333.2 179.5C1388.7 182.7 1444.3 177.3 1500 168.8C1555.7 160.3 1611.3 148.7 1666.8 138.5C1722.3 128.3 1777.7 119.7 1833.2 123.2C1888.7 126.7 1944.3 142.3 1972.2 150.2L2000 158L2000 201L1972.2 201C1944.3 201 1888.7 201 1833.2 201C1777.7 201 1722.3 201 1666.8 201C1611.3 201 1555.7 201 1500 201C1444.3 201 1388.7 201 1333.2 201C1277.7 201 1222.3 201 1166.8 201C1111.3 201 1055.7 201 1000 201C944.3 201 888.7 201 833.2 201C777.7 201 722.3 201 666.8 201C611.3 201 555.7 201 500 201C444.3 201 388.7 201 333.2 201C277.7 201 222.3 201 166.8 201C111.3 201 55.7 201 27.8 201L0 201Z" fill="#da4b32"></path><path d="M0 140L27.8 143.2C55.7 146.3 111.3 152.7 166.8 156.7C222.3 160.7 277.7 162.3 333.2 162.2C388.7 162 444.3 160 500 158.7C555.7 157.3 611.3 156.7 666.8 161C722.3 165.3 777.7 174.7 833.2 174.3C888.7 174 944.3 164 1000 159.5C1055.7 155 1111.3 156 1166.8 157.5C1222.3 159 1277.7 161 1333.2 162.8C1388.7 164.7 1444.3 166.3 1500 166C1555.7 165.7 1611.3 163.3 1666.8 163.7C1722.3 164 1777.7 167 1833.2 166.8C1888.7 166.7 1944.3 163.3 1972.2 161.7L2000 160L2000 201L1972.2 201C1944.3 201 1888.7 201 1833.2 201C1777.7 201 1722.3 201 1666.8 201C1611.3 201 1555.7 201 1500 201C1444.3 201 1388.7 201 1333.2 201C1277.7 201 1222.3 201 1166.8 201C1111.3 201 1055.7 201 1000 201C944.3 201 888.7 201 833.2 201C777.7 201 722.3 201 666.8 201C611.3 201 555.7 201 500 201C444.3 201 388.7 201 333.2 201C277.7 201 222.3 201 166.8 201C111.3 201 55.7 201 27.8 201L0 201Z" fill="#eb5c00"></path></svg>
