<svg id="visual" viewBox="0 0 900 600" width="900" height="600" xmlns="http://www.w3.org/2000/svg" xmlns:xlink="http://www.w3.org/1999/xlink" version="1.1"><path d="M0 175L13.7 161C27.3 147 54.7 119 82 122C109.3 125 136.7 159 163.8 171C191 183 218 173 245.2 161C272.3 149 299.7 135 327 132C354.3 129 381.7 137 409 136C436.3 135 463.7 125 491 116C518.3 107 545.7 99 573 105C600.3 111 627.7 131 654.8 144C682 157 709 163 736.2 163C763.3 163 790.7 157 818 154C845.3 151 872.7 151 886.3 151L900 151L900 0L886.3 0C872.7 0 845.3 0 818 0C790.7 0 763.3 0 736.2 0C709 0 682 0 654.8 0C627.7 0 600.3 0 573 0C545.7 0 518.3 0 491 0C463.7 0 436.3 0 409 0C381.7 0 354.3 0 327 0C299.7 0 272.3 0 245.2 0C218 0 191 0 163.8 0C136.7 0 109.3 0 82 0C54.7 0 27.3 0 13.7 0L0 0Z" fill="#6198ff"></path><path d="M0 253L13.7 237C27.3 221 54.7 189 82 189C109.3 189 136.7 221 163.8 239C191 257 218 261 245.2 254C272.3 247 299.7 229 327 222C354.3 215 381.7 219 409 220C436.3 221 463.7 219 491 214C518.3 209 545.7 201 573 207C600.3 213 627.7 233 654.8 243C682 253 709 253 736.2 250C763.3 247 790.7 241 818 233C845.3 225 872.7 215 886.3 210L900 205L900 149L886.3 149C872.7 149 845.3 149 818 152C790.7 155 763.3 161 736.2 161C709 161 682 155 654.8 142C627.7 129 600.3 109 573 103C545.7 97 518.3 105 491 114C463.7 123 436.3 133 409 134C381.7 135 354.3 127 327 130C299.7 133 272.3 147 245.2 159C218 171 191 181 163.8 169C136.7 157 109.3 123 82 120C54.7 117 27.3 145 13.7 159L0 173Z" fill="#3c80ff"></path><path d="M0 355L13.7 341C27.3 327 54.7 299 82 290C109.3 281 136.7 291 163.8 307C191 323 218 345 245.2 340C272.3 335 299.7 303 327 297C354.3 291 381.7 311 409 318C436.3 325 463.7 319 491 303C518.3 287 545.7 261 573 269C600.3 277 627.7 319 654.8 330C682 341 709 321 736.2 310C763.3 299 790.7 297 818 294C845.3 291 872.7 287 886.3 285L900 283L900 203L886.3 208C872.7 213 845.3 223 818 231C790.7 239 763.3 245 736.2 248C709 251 682 251 654.8 241C627.7 231 600.3 211 573 205C545.7 199 518.3 207 491 212C463.7 217 436.3 219 409 218C381.7 217 354.3 213 327 220C299.7 227 272.3 245 245.2 252C218 259 191 255 163.8 237C136.7 219 109.3 187 82 187C54.7 187 27.3 219 13.7 235L0 251Z" fill="#0066ff"></path><path d="M0 457L13.7 467C27.3 477 54.7 497 82 495C109.3 493 136.7 469 163.8 475C191 481 218 517 245.2 534C272.3 551 299.7 549 327 549C354.3 549 381.7 551 409 549C436.3 547 463.7 541 491 523C518.3 505 545.7 475 573 472C600.3 469 627.7 493 654.8 510C682 527 709 537 736.2 524C763.3 511 790.7 475 818 472C845.3 469 872.7 499 886.3 514L900 529L900 281L886.3 283C872.7 285 845.3 289 818 292C790.7 295 763.3 297 736.2 308C709 319 682 339 654.8 328C627.7 317 600.3 275 573 267C545.7 259 518.3 285 491 301C463.7 317 436.3 323 409 316C381.7 309 354.3 289 327 295C299.7 301 272.3 333 245.2 338C218 343 191 321 163.8 305C136.7 289 109.3 279 82 288C54.7 297 27.3 325 13.7 339L0 353Z" fill="#0059dd"></path><path d="M0 601L13.7 601C27.3 601 54.7 601 82 601C109.3 601 136.7 601 163.8 601C191 601 218 601 245.2 601C272.3 601 299.7 601 327 601C354.3 601 381.7 601 409 601C436.3 601 463.7 601 491 601C518.3 601 545.7 601 573 601C600.3 601 627.7 601 654.8 601C682 601 709 601 736.2 601C763.3 601 790.7 601 818 601C845.3 601 872.7 601 886.3 601L900 601L900 527L886.3 512C872.7 497 845.3 467 818 470C790.7 473 763.3 509 736.2 522C709 535 682 525 654.8 508C627.7 491 600.3 467 573 470C545.7 473 518.3 503 491 521C463.7 539 436.3 545 409 547C381.7 549 354.3 547 327 547C299.7 547 272.3 549 245.2 532C218 515 191 479 163.8 473C136.7 467 109.3 491 82 493C54.7 495 27.3 475 13.7 465L0 455Z" fill="#004cbb"></path></svg>